<svg xmlns="http://www.w3.org/2000/svg" viewBox="0 0 177.39 176.39"><title>logo</title><path d="M109.62,196.19c-17-.41-30.29-3.65-42.73-10.17-22-11.53-36.55-29.33-43.86-53a86,86,0,0,1-3.29-17,81.16,81.16,0,0,1-.17-15.11A86.63,86.63,0,0,1,32.93,60.82Q51.65,31.75,85.1,22.72a84.16,84.16,0,0,1,26-2.82c19.06.89,36.4,6.78,51.61,18.45a85.58,85.58,0,0,1,28.78,39.48A87.36,87.36,0,0,1,196,96.92a85.71,85.71,0,0,1,.42,18c-1.42,16.53-6.74,31.67-16.62,45.06-12.93,17.55-30.22,28.56-51.3,33.78A83.1,83.1,0,0,1,109.62,196.19ZM132.25,46.71A2,2,0,0,0,132,47q-9.5,15.87-19,31.76a4,4,0,0,0-.25,1.23,4.24,4.24,0,0,0,1.27.08c6.71-1.79,13.42-3.62,20.13-5.41,3.38-.9,6.77-1.76,10.16-2.61a1.83,1.83,0,0,1,2.22,1.12c.4.88-.07,1.57-.88,2-.24.14-.45.35-.69.5q-9.15,6.08-18.29,12.14c-4,2.65-7.86,5.4-10.86,9.16a24.9,24.9,0,0,0-5.13,20.29c1.37,8.54,6.38,14.28,14.44,17.33,1.52.58,3.17.79,4.69,1.33a2,2,0,0,1,1.11,1.37c0,.39-.58,1-1,1.26a13.65,13.65,0,0,1-2.39.89A25.91,25.91,0,0,1,115,140.81c-2.64-.45-5.26-1.06-7.88-1.63-1.29-.27-1.74,0-1.79,1.39,0,.78,0,1.56,0,2.34,0,4.64,0,9.28,0,13.92,0,1.46-.41,2-1.88,2a66,66,0,0,1-8.57-.31,50.09,50.09,0,0,1-22.27-9.19,1.6,1.6,0,0,0-2.43.13c-4.7,4.47-9.44,8.88-14.18,13.32l-4.38,4.13c3.17,2.51,6.1,5.07,9.28,7.3a83.81,83.81,0,0,0,59.09,14.14,80.39,80.39,0,0,0,23.39-7.12c15.59-7.52,27.88-18.64,36.32-33.83A80.85,80.85,0,0,0,189.58,112a82.73,82.73,0,0,0-1.85-22.32,77.07,77.07,0,0,0-17.91-35.27,81.79,81.79,0,0,0-37.41-24,76.68,76.68,0,0,0-16.16-3.18c-2.77-.25-5.57-.2-8.36-.3-.6,0-.85.17-.9.83-.46,5.42-1.11,10.83-1.42,16.26-.34,6.14-.39,12.3-.52,18.45a25,25,0,0,0,.28,3.1l.36.18,21.54-22.09L122,41.06c-.79-.4-1.41-1-1.14-1.92a1.52,1.52,0,0,1,1.86-1c3.75.5,7.6.68,11.24,1.61,18,4.61,31.52,15.44,41.57,30.77a65.27,65.27,0,0,1,10.37,31.71,66.07,66.07,0,0,1-2.23,22.58c-4.29,15.41-12.87,28.07-25.08,38.27a72.29,72.29,0,0,1-39.39,17,69.79,69.79,0,0,1-17-.36,60.9,60.9,0,0,1-23.45-8.25,46,46,0,0,1-9.22-6.89c-.52-.53-1-1.2-.39-1.81a3.4,3.4,0,0,1,1.8-.61,3,3,0,0,1,1.16.33,68.72,68.72,0,0,0,14.77,3.22,63.67,63.67,0,0,0,20.86-1.45c18.56-4.46,33.19-14.6,43.6-30.63a57.51,57.51,0,0,0,9.37-28,68.85,68.85,0,0,0-1-16.4A63.77,63.77,0,0,0,146,58.78,58.19,58.19,0,0,0,132.25,46.71ZM99.85,89.93c0-8.46,0-16.91,0-25.36,0-1.11-.29-1.76-1.53-1.61a92.56,92.56,0,0,0-9.46,1.16A39.39,39.39,0,0,0,66,78.74c-8.18,10.45-10.85,22.38-8.68,35.39.51,3,.12,2.72,3.35,2.63l1,0H98c1.84,0,1.87,0,1.87-1.81ZM85,58.73c1.89-.36,3.6-.71,5.32-1A2.12,2.12,0,0,0,92.22,56c1.31-4.52,2.72-9,4.09-13.53l4.6-15.18a74.72,74.72,0,0,0-28.63,7.56ZM47.71,162.57a12.77,12.77,0,0,0,.88-1.09c1.5-2.34,3-4.66,4.46-7,2.81-4.64,5.56-9.31,8.34-14a1.58,1.58,0,0,0-.1-2.05,43.22,43.22,0,0,1-3.1-4.69,1.49,1.49,0,0,0-2.26-.72c-4.85,2.12-9.71,4.18-14.58,6.24-2.42,1-4.86,2-7.27,3C35.26,146.63,43.73,159.28,47.71,162.57ZM31.39,136.88a22.17,22.17,0,0,0,1.93-1.19q9.34-7.2,18.64-14.44a1.63,1.63,0,0,0,.41-1.33,49.51,49.51,0,0,0-1.12-5.25A2.18,2.18,0,0,0,50,113.29c-1.59-.33-3.24-.39-4.87-.57L37,111.84c-3.13-.35-6.26-.72-9.38-1.09-.9-.1-1.21.2-1.18,1.16a71.53,71.53,0,0,0,2.42,16.2C29.58,131,30.48,133.8,31.39,136.88ZM47.88,52.8c6.88,4.78,13.6,9.43,20.28,14.13a1.28,1.28,0,0,0,1.73,0c1.43-1,2.87-2,4.24-3.13a1.35,1.35,0,0,0,.4-1.15q-3.06-10.21-6.22-20.4c-.44-1.42-1-2.8-1.57-4.33A73.38,73.38,0,0,0,47.88,52.8ZM32.46,76.7c.14.16.17.2.2.21,7.61,1.75,15.22,3.5,22.85,5.19A1.7,1.7,0,0,0,57,81.57c1.23-1.82,2.34-3.72,3.55-5.7L43.94,57.38A71.75,71.75,0,0,0,32.46,76.7Zm-6.06,28a14.68,14.68,0,0,0,1.49-.08c7.26-1.22,14.53-2.46,21.8-3.65a1.47,1.47,0,0,0,1.39-1.29,34,34,0,0,1,.79-4.19c.39-1.21-.08-1.72-1-2.22-4.51-2.35-9-4.74-13.51-7.1-2.26-1.19-4.54-2.34-7-3.6A79.51,79.51,0,0,0,26.4,104.65Zm53.26,17.19H61c-1.33,0-1.44.14-1,1.44.34,1,.78,2,1.13,3.09a1.63,1.63,0,0,0,1.85,1.18q13.35-.06,26.71,0h8.62c1.61,0,1.61,0,1.61-1.55,0-.69,0-1.39,0-2.09,0-2,0-2-2-2ZM65.22,132.77l-.29.45c1.19,1.48,2.32,3,3.59,4.41a2.55,2.55,0,0,0,1.68.69c4.92.05,9.84,0,14.77,0,4.55,0,9.1,0,13.66,0,.89,0,1.28-.28,1.23-1.2a24.2,24.2,0,0,1,0-2.95c.1-1.16-.28-1.56-1.5-1.56-10.62,0-21.25,0-31.87,0C66.07,132.68,65.65,132.74,65.22,132.77Zm10.25,10.65a3,3,0,0,0,.33.53,42.29,42.29,0,0,0,22.75,9c1,.08,1.34-.21,1.32-1.21-.05-2.17,0-4.35,0-6.52,0-1.74,0-1.8-1.77-1.8l-14.16,0Z" transform="translate(-19.3 -19.81)"/><path d="M151.75,107.49a5.6,5.6,0,0,1-1.34,1c-1.21.44-2.51.69-3.73,1.12a9.58,9.58,0,0,0-6.42,7,22,22,0,0,1-.88,3,1.84,1.84,0,0,1-1.27,1c-.33,0-.85-.67-1-1.13-.36-1-.56-2.12-.82-3.19a9.28,9.28,0,0,0-7.07-7,23.25,23.25,0,0,1-2.81-.78,6,6,0,0,1-1.41-1.26,5.41,5.41,0,0,1,1.36-1.15c.93-.38,2-.52,2.93-.83,4.27-1.35,6.66-4.34,7.52-8.66a6.37,6.37,0,0,1,.33-1.55,7.64,7.64,0,0,1,1.14-1.29c.42.39,1,.7,1.22,1.17a9.64,9.64,0,0,1,.73,2.32c1.06,4.94,4.27,7.59,9.07,8.58a8.78,8.78,0,0,1,1.51.46,11,11,0,0,1,1.2.57Z" transform="translate(-19.3 -19.81)"/></svg>