<svg xmlns="http://www.w3.org/2000/svg" viewBox="0 0 72 72" width="72" height="72">
    <title>LinkedIn Icon</title>
    <path fill="#007ebb" d="M64,0H8A8,8,0,0,0,0,8V64a8,8,0,0,0,8,8H64a8,8,0,0,0,8-8V8A8,8,0,0,0,64,0Z"/>
    <path fill="white" d="M21.77,62H11V27.33H21.77ZM16.35,22.79A6.4,6.4,0,1,1,22.7,16.4,6.37,6.37,0,0,1,16.35,22.79Z"/>
    <path fill="white" d="M62,62H51.32V43.8c0-5-1.9-7.78-5.85-7.78-4.3,0-6.54,2.91-6.54,7.78V62H28.63V27.33h10.3V32a12.1,12.1,0,0,1,10.45-5.73C56.74,26.27,62,30.76,62,40.05Z"/>
</svg>
